HIERARCHY
ROOT Hips
{
	OFFSET 0.000000 0.000000 0.000000
	CHANNELS 6 Xposition Yposition Zposition Zrotation Yrotation Xrotation 
	JOINT LowerBack
	{
		OFFSET 0.000000 0.000000 0.000000
		CHANNELS 3 Zrotation Yrotation Xrotation
		JOINT Spine
		{
			OFFSET 0.028270 2.035590 -0.193380
			CHANNELS 3 Zrotation Yrotation Xrotation
			JOINT Spine1
			{
				OFFSET 0.056720 2.048850 -0.042750
				CHANNELS 3 Zrotation Yrotation Xrotation
				JOINT Neck
				{
					OFFSET 0.000000 0.000000 0.000000
					CHANNELS 3 Zrotation Yrotation Xrotation
					JOINT Neck1
					{
						OFFSET -0.054170 1.746240 0.172020
						CHANNELS 3 Zrotation Yrotation Xrotation
						JOINT Head
						{
							OFFSET 0.104070 1.761360 -0.123970
							CHANNELS 3 Zrotation Yrotation Xrotation
							End Site
							{
								OFFSET 0.000000 0.000000 0.000000
							}
						}
					}
				}
				JOINT LeftShoulder
				{
					OFFSET 0.000000 0.000000 0.000000
					CHANNELS 3 Zrotation Yrotation Xrotation
					JOINT LeftArm
					{
						OFFSET 3.362410 1.200890 -0.311210
						CHANNELS 3 Zrotation Yrotation Xrotation
						JOINT LeftForeArm
						{
							OFFSET 4.983000 -0.000000 -0.000000
							CHANNELS 3 Zrotation Yrotation Xrotation
							JOINT LeftHand
							{
								OFFSET 3.483560 -0.000000 -0.000000
								CHANNELS 3 Zrotation Yrotation Xrotation
								JOINT LeftFingerBase
								{
									OFFSET 0.000000 0.000000 0.000000
									CHANNELS 3 Zrotation Yrotation Xrotation
									JOINT LeftHandIndex1
									{
										OFFSET 0.715260 -0.000000 -0.000000
										CHANNELS 3 Zrotation Yrotation Xrotation
										End Site
										{
											OFFSET 0.000000 0.000000 0.000000
										}
									}
								}
								JOINT LThumb
								{
									OFFSET 0.000000 0.000000 0.000000
									CHANNELS 3 Zrotation Yrotation Xrotation
									End Site
									{
										OFFSET 0.000000 0.000000 0.000000
									}
								}
							}
						}
					}
				}
				JOINT RightShoulder
				{
					OFFSET 0.000000 0.000000 0.000000
					CHANNELS 3 Zrotation Yrotation Xrotation
					JOINT RightArm
					{
						OFFSET -3.136600 1.374050 -0.404650
						CHANNELS 3 Zrotation Yrotation Xrotation
						JOINT RightForeArm
						{
							OFFSET -5.241900 -0.000000 -0.000000
							CHANNELS 3 Zrotation Yrotation Xrotation
							JOINT RightHand
							{
								OFFSET -3.444170 -0.000000 -0.000000
								CHANNELS 3 Zrotation Yrotation Xrotation
								JOINT RightFingerBase
								{
									OFFSET 0.000000 0.000000 0.000000
									CHANNELS 3 Zrotation Yrotation Xrotation
									JOINT RightHandIndex1
									{
										OFFSET -0.622530 -0.000000 -0.000000
										CHANNELS 3 Zrotation Yrotation Xrotation
										End Site
										{
											OFFSET 0.000000 0.000000 0.000000
										}
									}
								}
								JOINT RThumb
								{
									OFFSET 0.000000 0.000000 0.000000
									CHANNELS 3 Zrotation Yrotation Xrotation
									End Site
									{
										OFFSET 0.000000 0.000000 0.000000
									}
								}
							}
						}
					}
				}
			}
		}
	}
}
}
MOTION
Frames: 11
Frame Time: 0.008333
-0.681305 15.269205 -2.359881 90.300008 85.076532 106.474432 -5.119549 0.901182 -4.147010 -1.770312 1.190381 -3.756699 -5.483881 1.104549 0.044610 8.887681 -5.813528 -5.712442 -2.777972 -0.227187 0.474021 0.000000 0.000000 0.000000 -0.489290 9.413795 1.891253 -76.429111 -22.483314 -2.322901 -2.359062 -23.858151 -0.057851 15.263463 7.966222 1.056412 -0.126269 0.155621 0.000000 0.000000 0.000000 0.000000 0.000000 0.000000 0.000000 10.900711 -0.353730 -0.745007 74.772737 23.578747 29.935375 0.819191 57.805981 -0.047516 -12.460990 7.995487 -0.923929 0.174214 -0.347573 -0.000000 0.000000 0.000000 0.000000 0.000000 0.000000 0.000000 
-0.514817 15.329143 -2.327322 89.974759 85.078640 105.922995 -4.723972 0.688938 -4.009540 -1.714961 0.942728 -3.761089 -5.780305 0.852933 -0.157974 9.164143 -5.904319 -5.520925 -2.969316 -0.242769 0.526232 0.000000 0.000000 0.000000 -0.233721 8.328610 1.521955 -76.807313 -24.687929 1.212054 -2.200944 -27.772086 -0.064339 15.510140 7.970758 1.073812 -0.145239 0.168466 0.000000 0.000000 0.000000 0.000000 0.000000 0.000000 0.000000 12.051957 -0.735768 -0.512993 76.229475 20.199519 26.590378 0.957837 53.102154 -0.043473 -12.888089 8.602315 -1.021978 0.168193 -0.322140 -0.000000 0.000000 0.000000 0.000000 0.000000 0.000000 0.000000 
-0.343871 15.401381 -2.289999 89.007174 85.074014 104.772825 -4.324937 0.420801 -3.960955 -1.652271 0.638925 -3.765549 -6.053921 0.546911 -0.299849 9.423931 -6.029342 -5.372363 -3.149156 -0.257037 0.568335 0.000000 0.000000 0.000000 0.124892 7.390148 1.154181 -76.854711 -26.945029 4.082951 -2.015732 -31.679684 -0.071787 15.793954 7.695169 1.053429 -0.164055 0.187085 0.000000 0.000000 0.000000 0.000000 0.000000 0.000000 0.000000 13.111876 -1.187410 -0.266572 77.362407 17.063460 22.724637 1.092290 48.850210 -0.040212 -13.519404 9.144978 -1.134233 0.164453 -0.297439 0.000000 0.000000 0.000000 0.000000 0.000000 0.000000 0.000000 
-0.168276 15.485941 -2.247820 87.388889 85.062081 103.009532 -3.926257 0.101660 -3.995368 -1.582278 0.284210 -3.769648 -6.297118 0.192574 -0.381605 9.663458 -6.209386 -5.273222 -3.315200 -0.269877 0.598698 0.000000 0.000000 0.000000 0.582524 6.601668 0.793636 -76.572603 -29.231471 6.248454 -1.810558 -35.584037 -0.080131 16.079071 7.206519 1.000161 -0.181830 0.211879 0.000000 0.000000 0.000000 0.000000 0.000000 0.000000 0.000000 14.070855 -1.722656 -0.012763 78.131213 14.149656 18.637561 1.214036 45.140398 -0.037535 -14.345745 9.566210 -1.254193 0.162603 -0.273118 0.000000 0.000000 0.000000 0.000000 0.000000 0.000000 0.000000 
0.012212 15.582943 -2.200841 85.085365 85.041747 100.591117 -3.528034 -0.261181 -4.101666 -1.504341 -0.113985 -3.770109 -6.504039 -0.201648 -0.396712 9.879210 -6.489426 -5.238884 -3.464033 -0.280977 0.613107 0.000000 0.000000 0.000000 1.102977 6.000067 0.443685 -75.951927 -31.561232 7.730099 -1.594367 -39.468320 -0.089259 16.333774 6.572546 0.920309 -0.197770 0.242703 0.000000 0.000000 0.000000 0.000000 0.000000 0.000000 0.000000 14.922495 -2.379555 0.236285 78.501723 11.453919 14.696600 1.320763 42.005127 -0.035086 -15.327979 9.828166 -1.372757 0.162306 -0.248897 0.000000 0.000000 0.000000 0.000000 0.000000 0.000000 0.000000 
0.197575 15.692006 -2.149097 82.042428 85.007216 97.450927 -3.133911 -0.655424 -4.267592 -1.418066 -0.542709 -3.769837 -6.664452 -0.623152 -0.363390 10.055303 -6.851373 -5.255292 -3.590678 -0.290231 0.615518 0.000000 0.000000 0.000000 1.682199 5.534349 0.110758 -74.988615 -33.851124 8.485507 -1.367207 -43.359291 -0.099019 16.531818 5.853971 0.821071 -0.210711 0.279182 -0.000000 0.000000 0.000000 0.000000 0.000000 0.000000 0.000000 15.625820 -3.132023 0.470593 78.483086 8.895327 11.144840 1.414968 39.443448 -0.032452 -16.355352 9.936498 -1.477422 0.162540 -0.224970 0.000000 0.000000 0.000000 0.000000 0.000000 0.000000 0.000000 
0.387687 15.812559 -2.092709 78.198739 84.949450 93.516198 -2.745223 -1.067440 -4.479649 -1.322855 -0.987881 -3.770932 -6.770473 -1.058749 -0.297155 10.176669 -7.269829 -5.307883 -3.690924 -0.297515 0.609825 0.000000 0.000000 0.000000 2.295479 5.179696 -0.200469 -73.673375 -36.051831 8.514801 -1.132070 -47.255017 -0.109228 16.656992 5.099429 0.709648 -0.219672 0.320636 -0.000000 0.000000 0.000000 0.000000 0.000000 0.000000 0.000000 16.148968 -3.946645 0.680257 78.108300 6.407822 8.139500 1.504038 37.410447 -0.029267 -17.290823 9.918336 -1.555984 0.162566 -0.201655 -0.000000 0.000000 0.000000 0.000000 0.000000 0.000000 0.000000 
0.582504 15.943834 -2.031885 73.511405 84.854793 88.736722 -2.360117 -1.485562 -4.722934 -1.217603 -1.437792 -3.768139 -6.817441 -1.496996 -0.185923 10.233265 -7.804809 -5.412612 -3.758838 -0.302219 0.591515 0.000000 0.000000 0.000000 2.874375 4.983503 -0.494772 -71.993987 -38.211694 7.902505 -0.898048 -51.102971 -0.119686 16.709020 4.349755 0.593938 -0.224342 0.365853 0.000000 0.000000 0.000000 0.000000 0.000000 0.000000 0.000000 16.478775 -4.880296 0.854816 77.409284 4.062473 5.906004 1.600164 35.755742 -0.025247 -18.064339 9.807725 -1.604535 0.162942 -0.178911 -0.000000 0.000000 0.000000 0.000000 0.000000 0.000000 0.000000 
0.781686 16.084474 -1.966743 68.015989 84.704416 83.139180 -1.981827 -1.894325 -4.988647 -1.102582 -1.876619 -3.770250 -6.799065 -1.924953 -0.066645 10.206922 -8.351393 -5.522693 -3.793472 -0.304715 0.573221 0.000000 0.000000 0.000000 3.429053 4.856030 -0.769247 -69.954525 -40.215264 6.606706 -0.666037 -54.910590 -0.130207 16.689297 3.630594 0.479339 -0.223848 0.413941 0.000000 0.000000 0.000000 0.000000 0.000000 0.000000 0.000000 16.581200 -5.821811 0.994498 76.465690 1.749366 4.282417 1.707506 34.421136 -0.020429 -18.540635 9.668485 -1.620574 0.162905 -0.157487 -0.000000 0.000000 0.000000 0.000000 0.000000 0.000000 0.000000 
0.984868 16.232995 -1.897418 61.858780 84.477767 76.867188 -1.608169 -2.283665 -5.267740 -0.977559 -2.294714 -3.777173 -6.715215 -2.334424 0.057383 10.090587 -8.906958 -5.630389 -3.793529 -0.304921 0.556807 0.000000 0.000000 0.000000 3.926920 4.799124 -1.032010 -67.559726 -42.064294 4.686957 -0.446170 -58.627137 -0.140641 16.614111 2.964617 0.371342 -0.218235 0.463520 -0.000000 0.000000 0.000000 0.000000 0.000000 0.000000 0.000000 16.453222 -6.767011 1.099297 75.336294 -0.495628 3.220007 1.831190 33.277311 -0.014927 -18.691827 9.551264 -1.611004 0.162920 -0.137573 -0.000000 0.000000 0.000000 0.000000 0.000000 0.000000 0.000000 
1.191590 16.387685 -1.824055 55.320412 84.158922 70.202226 -1.235675 -2.646738 -5.554547 -0.842727 -2.685943 -3.790694 -6.568810 -2.720584 0.177359 9.880910 -9.446459 -5.720678 -3.760092 -0.303011 0.546083 0.000000 0.000000 0.000000 4.357913 4.795976 -1.292265 -64.825132 -43.738723 2.193385 -0.249195 -62.207133 -0.150899 16.506550 2.369625 0.274331 -0.207856 0.513143 -0.000000 0.000000 0.000000 0.000000 0.000000 0.000000 0.000000 16.097870 -7.689337 1.173579 74.083556 -2.659932 2.573659 1.972660 32.224922 -0.008974 -18.518054 9.502969 -1.584923 0.163218 -0.119393 -0.000000 0.000000 0.000000 0.000000 0.000000 0.000000 0.000000 
